<svg xmlns="http://www.w3.org/2000/svg" xmlns:xlink="http://www.w3.org/1999/xlink" viewBox="0 0 279.13 384"><defs><style>.cls-1{fill:#fff;opacity:0.85;}.cls-2{fill:#004994;}.cls-3{fill:#6fba2e;}.cls-4{fill:url(#linear-gradient);}.cls-5{fill:url(#linear-gradient-2);}.cls-6{fill:url(#linear-gradient-3);}.cls-7{fill:url(#linear-gradient-4);}.cls-8{fill:#138b3b;}</style><linearGradient id="linear-gradient" x1="151.2" y1="340.12" x2="193.45" y2="231.86" gradientUnits="userSpaceOnUse"><stop offset="0" stop-color="#4ab464"/><stop offset="0.25" stop-color="#4eb55e"/><stop offset="0.58" stop-color="#5ab74d"/><stop offset="0.95" stop-color="#6cba32"/><stop offset="1" stop-color="#6fba2e"/></linearGradient><linearGradient id="linear-gradient-2" x1="140.53" y1="142.63" x2="100.93" y2="276.42" xlink:href="#linear-gradient"/><linearGradient id="linear-gradient-3" x1="7492.69" y1="291.55" x2="7492.69" y2="144.99" gradientTransform="matrix(-1, 0, 0, 1, 7564.03, 0)" gradientUnits="userSpaceOnUse"><stop offset="0" stop-color="#4ec1e7"/><stop offset="0.28" stop-color="#3e9ecd"/><stop offset="0.89" stop-color="#16468b"/><stop offset="1" stop-color="#0e357f"/></linearGradient><linearGradient id="linear-gradient-4" x1="7414.69" y1="291.55" x2="7414.69" y2="144.99" xlink:href="#linear-gradient-3"/></defs><g id="圖層_2" data-name="圖層 2"><g id="logo"><path class="cls-1" d="M150.86,384H128.4c-1.07-.25-2.13-.54-3.21-.74-6.73-1.21-13.62-1.85-20.17-3.69C56.2,365.88,23.25,334.94,6.87,286.91c-8.11-23.77-9.43-48.1-1.86-72.48a292.64,292.64,0,0,1,21.2-49.78C46.78,125.71,71.71,89.59,97.39,54q15.66-21.72,31.43-43.34C131.4,7.06,134,3.54,136.63,0h6a72,72,0,0,1,5.08,5.27Q182.44,49.18,213.16,96c20.2,30.91,39,62.61,53.39,96.76,11.19,26.51,16.55,53.61,9.21,82-14.27,55.29-48.92,90.62-104.08,105.41C164.89,382,157.81,382.76,150.86,384Z"/><path class="cls-2" d="M189.55,327.32l.86-.08a1.86,1.86,0,0,0,.28.85,1.59,1.59,0,0,0,.69.53,2.52,2.52,0,0,0,1.05.2,2.57,2.57,0,0,0,.92-.15,1.22,1.22,0,0,0,.59-.42,1,1,0,0,0,.2-.59,1,1,0,0,0-.19-.57,1.42,1.42,0,0,0-.62-.4,12.26,12.26,0,0,0-1.22-.33,6.27,6.27,0,0,1-1.32-.43,1.85,1.85,0,0,1-.73-.64,1.49,1.49,0,0,1-.25-.85,1.71,1.71,0,0,1,.3-1,1.87,1.87,0,0,1,.86-.69,3.4,3.4,0,0,1,1.26-.23,3.48,3.48,0,0,1,1.34.24,2,2,0,0,1,.9.73,2,2,0,0,1,.33,1.08l-.86.06a1.42,1.42,0,0,0-.48-1,1.85,1.85,0,0,0-1.19-.33,1.92,1.92,0,0,0-1.2.3.88.88,0,0,0-.38.73.77.77,0,0,0,.27.6,3.44,3.44,0,0,0,1.36.49,9.62,9.62,0,0,1,1.52.44,2,2,0,0,1,.88.7,1.63,1.63,0,0,1,.29,1,1.83,1.83,0,0,1-.31,1,2,2,0,0,1-.9.76,3.15,3.15,0,0,1-1.32.27,4,4,0,0,1-1.56-.27,2.29,2.29,0,0,1-1-.82A2.35,2.35,0,0,1,189.55,327.32Z"/><path class="cls-2" d="M196.15,323.63v-1H197v1Zm0,5.89v-5H197v5Z"/><path class="cls-2" d="M198.27,329.52v-5H199v.71a1.77,1.77,0,0,1,1.58-.82,2.18,2.18,0,0,1,.82.16,1.35,1.35,0,0,1,.57.43,1.66,1.66,0,0,1,.26.62,5.15,5.15,0,0,1,0,.82v3h-.84v-3a2.17,2.17,0,0,0-.1-.77.8.8,0,0,0-.34-.41,1.15,1.15,0,0,0-.59-.15,1.35,1.35,0,0,0-.93.34,1.7,1.7,0,0,0-.39,1.3v2.71Z"/><path class="cls-2" d="M206.84,327.7l.82.11a2.15,2.15,0,0,1-.69,1.34,2,2,0,0,1-1.37.48A2.14,2.14,0,0,1,204,329a2.74,2.74,0,0,1-.62-1.91,3.41,3.41,0,0,1,.27-1.41,1.8,1.8,0,0,1,.81-.91,2.41,2.41,0,0,1,1.18-.3,2.11,2.11,0,0,1,1.33.41,1.9,1.9,0,0,1,.66,1.16l-.82.13a1.34,1.34,0,0,0-.42-.75,1.06,1.06,0,0,0-.72-.26,1.33,1.33,0,0,0-1,.46,2.17,2.17,0,0,0-.4,1.44,2.24,2.24,0,0,0,.39,1.46,1.24,1.24,0,0,0,1,.45,1.21,1.21,0,0,0,.83-.3A1.56,1.56,0,0,0,206.84,327.7Z"/><path class="cls-2" d="M211.78,327.92l.87.11a2.07,2.07,0,0,1-.76,1.18,2.59,2.59,0,0,1-3.15-.25,2.64,2.64,0,0,1-.64-1.88,2.77,2.77,0,0,1,.65-1.95,2.19,2.19,0,0,1,1.67-.69,2.13,2.13,0,0,1,1.63.68,2.7,2.7,0,0,1,.63,1.91v.22H209a1.85,1.85,0,0,0,.47,1.25,1.33,1.33,0,0,0,1,.44,1.28,1.28,0,0,0,.79-.24A1.58,1.58,0,0,0,211.78,327.92ZM209,326.56h2.77a1.66,1.66,0,0,0-.31-.94,1.38,1.38,0,0,0-2-.1A1.53,1.53,0,0,0,209,326.56Z"/><path class="cls-2" d="M219.31,329.52h-.84v-5.36a5.2,5.2,0,0,1-.8.58,6.41,6.41,0,0,1-.89.43v-.81a4.92,4.92,0,0,0,1.24-.81,3.27,3.27,0,0,0,.75-.91h.54Z"/><path class="cls-2" d="M221.59,327.93l.81-.07a1.44,1.44,0,0,0,.39.83,1.1,1.1,0,0,0,.75.25,1.3,1.3,0,0,0,.68-.17,1.44,1.44,0,0,0,.47-.48,2.77,2.77,0,0,0,.32-.8,4.46,4.46,0,0,0,.12-1v-.17a2,2,0,0,1-.69.66,2,2,0,0,1-2.39-.37,2.28,2.28,0,0,1-.59-1.63,2.34,2.34,0,0,1,.62-1.68,2.06,2.06,0,0,1,1.54-.63,2.18,2.18,0,0,1,1.22.36,2.24,2.24,0,0,1,.84,1A4.92,4.92,0,0,1,226,326a6.2,6.2,0,0,1-.28,2.09,2.49,2.49,0,0,1-.85,1.19,2.22,2.22,0,0,1-1.32.41,1.81,1.81,0,0,1-1.93-1.71Zm3.45-3a1.64,1.64,0,0,0-.39-1.15,1.24,1.24,0,0,0-.93-.43,1.32,1.32,0,0,0-1,.46,1.74,1.74,0,0,0-.41,1.19,1.46,1.46,0,0,0,.39,1.06,1.29,1.29,0,0,0,1,.41,1.22,1.22,0,0,0,1-.41A1.61,1.61,0,0,0,225,324.91Z"/><path class="cls-2" d="M226.92,327.93l.81-.07a1.32,1.32,0,0,0,.39.83,1.07,1.07,0,0,0,.74.25,1.25,1.25,0,0,0,.68-.17,1.38,1.38,0,0,0,.48-.48,2.52,2.52,0,0,0,.31-.8,4,4,0,0,0,.13-1v-.17a1.94,1.94,0,0,1-1.64.91,1.91,1.91,0,0,1-1.44-.62,2.28,2.28,0,0,1-.59-1.63,2.37,2.37,0,0,1,.61-1.68,2.1,2.1,0,0,1,1.55-.63,2.2,2.2,0,0,1,1.22.36,2.24,2.24,0,0,1,.84,1,5.11,5.11,0,0,1,.29,1.93A6.16,6.16,0,0,1,231,328a2.43,2.43,0,0,1-.85,1.19,2.18,2.18,0,0,1-1.32.41,1.81,1.81,0,0,1-1.92-1.71Zm3.44-3a1.68,1.68,0,0,0-.38-1.15,1.24,1.24,0,0,0-.93-.43,1.32,1.32,0,0,0-1,.46,1.69,1.69,0,0,0-.41,1.19,1.46,1.46,0,0,0,.39,1.06,1.27,1.27,0,0,0,1,.41,1.23,1.23,0,0,0,1-.41A1.6,1.6,0,0,0,230.36,324.91Z"/><path class="cls-2" d="M236.54,328.71v.81H232a1.27,1.27,0,0,1,.1-.58,3.07,3.07,0,0,1,.55-.92,8.18,8.18,0,0,1,1.1-1,9.25,9.25,0,0,0,1.51-1.46,1.72,1.72,0,0,0,.39-1,1.11,1.11,0,0,0-.35-.84,1.3,1.3,0,0,0-.94-.35,1.33,1.33,0,0,0-1,.37,1.42,1.42,0,0,0-.37,1l-.86-.09a2.12,2.12,0,0,1,.67-1.48,2.29,2.29,0,0,1,1.55-.5,2.18,2.18,0,0,1,1.56.54,1.79,1.79,0,0,1,.58,1.36,2.14,2.14,0,0,1-.17.81,3.31,3.31,0,0,1-.56.84,13.38,13.38,0,0,1-1.3,1.2c-.5.43-.82.71-1,.86a3.3,3.3,0,0,0-.35.46Z"/><path class="cls-3" d="M152.56,312.05a5.52,5.52,0,0,1-11,0,5.25,5.25,0,0,1,.24-1.6,6.29,6.29,0,0,1,.48-1.13h0l4.85-11.12,4.46,10.68A5.49,5.49,0,0,1,152.56,312.05Z"/><path class="cls-2" d="M58.06,273.07a86.66,86.66,0,0,1-4.82,10.74v33.64H47.62v-24.8c-.94,1.25-1.89,2.39-2.83,3.43a41.48,41.48,0,0,0-3.18-6.21,52.91,52.91,0,0,0,10.93-18.54Zm30.31,8.4v4.42H55.27v-4.42h8.4c.25-1,.5-1.94.75-3h-6v-4.33h7c.25-1.09.45-2.18.65-3.18l5.66.6-.54,2.58H83.65v7.31ZM76.3,308.16H88.23v4.47H76.3v4.88H70.58v-4.88H57.26c.7-2.13,1.49-5,2.14-7.65H56.61V300.8h14v-2.08H58.3V287.63H85v11.09H76.3v2.08H87.43V305H76.3ZM63.57,294.64H79.48v-2.93H63.57Zm7,13.52V305H64.91c-.24,1-.49,2.14-.74,3.18Zm-.35-29.67c-.24,1-.49,2-.74,3H78v-3Z"/><path class="cls-2" d="M113.63,312.09c0,2.43-.45,3.68-2.09,4.47s-3.83.84-6.86.84a16.5,16.5,0,0,0-1.79-4.62c1.79.1,3.73.1,4.32.1s.85-.2.85-.84V307c-2.49,1.79-5,3.48-7.21,4.92l-1.24-3.48a21.91,21.91,0,0,1-3.53,9.34,23.65,23.65,0,0,0-4.12-4c2.63-3.88,2.83-9.35,2.83-13.67V288.93h18.84Zm-2.79-37.28a107.15,107.15,0,0,1,5.92,11.43l-5.17,2.09c-.3-.89-.75-1.94-1.24-3.13-12.58,1.24-14.62,1.54-16.06,2.14-.3-1.15-1.24-3.83-1.84-5.32a5.8,5.8,0,0,0,2.74-2,42.13,42.13,0,0,0,5.86-8.85l6,1.69a54.34,54.34,0,0,1-6.11,8.25l7.26-.54c-.75-1.44-1.44-2.84-2.09-4Zm-10.58,25.35a58.64,58.64,0,0,1-.35,6.36c2.24-1,5.17-2.49,8.15-4.08V300.8l-2.39,2.34a71.27,71.27,0,0,0-5.41-4.77Zm0-6.26v3.52l2.48-2.13c1.69,1.19,3.83,2.93,5.32,4.22V293.9Zm24.55-.85c-6,0-7.56-2.18-7.56-7.7V271.23h5.87v5.87h12.23v5.07H123.12v3.28c0,1.84.3,2.53,1.89,2.53h7.25a25.61,25.61,0,0,0,4.58-.4c.09,1.54.35,3.68.54,5a19.74,19.74,0,0,1-5,.45Zm6.26,19c1.69,0,2-.85,2.29-5.42a16.23,16.23,0,0,0,5.12,2.14c-.6,6.51-2.14,8.45-6.86,8.45h-7.06c-5.86,0-7.31-1.74-7.31-7.16V294.44h5.87v5h12.57v5.22H123.12v5.42c0,1.74.35,2,2.28,2Z"/><path class="cls-2" d="M149,295.09a34.67,34.67,0,0,0-8.5-5.37l2.78-4.47a38.65,38.65,0,0,1,8.65,4.92Zm2.43-13.42a32.62,32.62,0,0,0-8.25-5.62l2.88-4.32a31.15,31.15,0,0,1,8.55,5.17Zm36.09,17.2H184.1v7.5H172.58v5c0,2.88-.55,4.27-2.44,5.12s-4.52.89-8.25.89a18.84,18.84,0,0,0-1.64-5.26c2.39.1,5,.1,5.82.05s1-.2,1-.9v-4.92H156.47V301.7h10.59v-2.83H154v-5h13.08v-2.63H156.92v-4.67h2.19a24.28,24.28,0,0,0-2.79-5.42l4.08-1.79a21.86,21.86,0,0,1,3.23,5.87l-2.83,1.34h23.3v7.3h3.44Zm-3.19-23.46c-7.7,2.13-18.48,3.38-27.73,3.92a18.18,18.18,0,0,0-1.39-4.52c9-.6,19.19-1.89,25.2-3.63Zm-15.6,11a25.67,25.67,0,0,0-2.63-6.81l4.32-1.39a30.73,30.73,0,0,1,2.83,6.56Zm3.83,7.4H179v-2.63h-6.46Zm6.46,5h-6.46v2.83H179Zm-3.68-14a43.89,43.89,0,0,0,3.87-7.46l5.47,1.45c-1.59,2.83-3.18,5.51-4.52,7.4Z"/><path class="cls-2" d="M210,284.5c-2.18,13.42-7.55,23.46-14.51,28.68a20.66,20.66,0,0,0-4.77-4.57c5.71-3.88,10-10.69,12.17-19.39H192.46v-6H205l1.1-.2Zm24.7-.84a156.54,156.54,0,0,1-11.52,10.63,35,35,0,0,0,15.1,13.12,26.73,26.73,0,0,0-4.42,5.52c-7-3.73-12.28-9.79-16.16-17.2V310c0,3.43-.64,5.17-2.63,6.26s-4.92,1.34-8.94,1.34a26.17,26.17,0,0,0-2.19-6.61c2.73.1,5.37.1,6.31.1s1.14-.3,1.14-1.14V271.13h6.31v12.13a58,58,0,0,0,2.74,6.41,79.63,79.63,0,0,0,8.8-9.84Z"/><path class="cls-4" d="M161.64,257.49l26-52.29a3.36,3.36,0,0,1,1.19-1.43,5,5,0,0,1,2.49-.64H204a4.82,4.82,0,0,1,1.91.37c1,.87.2,2.48.2,2.48l-5.24,10.33-1.34,2.6h17.13a5.23,5.23,0,0,1,2.32.55,1.76,1.76,0,0,1,.35,2.08l-14.6,28s-3.33,7.95-11.13,8C184.9,257.53,161.64,257.49,161.64,257.49Z"/><path class="cls-5" d="M116.77,162,88.9,257.47h27.7s7.39.41,10.67-9.45,20.15-70.25,20.15-70.25Z"/><path class="cls-6" d="M66.55,164.63c10.27,4.4,14.78,15.6,14.78,15.6l22.55,77.24H76.17s-7.39.41-10.67-9.45-26.69-86.2-26.69-86.2S55.06,159.71,66.55,164.63Z"/><path class="cls-7" d="M144.55,164.63c10.26,4.4,14.78,15.6,14.78,15.6l22.54,77.24h-27.7s-7.39.41-10.68-9.45-26.68-86.2-26.68-86.2S133.06,159.71,144.55,164.63Z"/><path class="cls-3" d="M226.68,201.53A4.56,4.56,0,0,1,223,203.7H209.86a1.36,1.36,0,0,1-1.3-2.18l5.2-9.66a4.58,4.58,0,0,1,3.64-2.18h13.19a1.36,1.36,0,0,1,1.3,2.18Z"/><path class="cls-3" d="M213.15,188.13a4.19,4.19,0,0,1-3.34,2H197.72a1.24,1.24,0,0,1-1.19-2l4.77-8.87a4.21,4.21,0,0,1,3.34-2h12.09a1.24,1.24,0,0,1,1.19,2Z"/><path class="cls-3" d="M236.07,174.53a3.55,3.55,0,0,1-2.83,1.69H223a1.05,1.05,0,0,1-1-1.69L226,167a3.54,3.54,0,0,1,2.82-1.69H239.1a1.05,1.05,0,0,1,1,1.69Z"/><polygon class="cls-8" points="181.87 257.47 174.4 231.86 161.66 257.47 181.87 257.47"/></g></g></svg>