<svg xmlns="http://www.w3.org/2000/svg" viewBox="0 0 299.26 35.21"><defs><style>.cls-1{fill:#fff;}</style></defs><g id="圖層_2" data-name="圖層 2"><g id="圖層_1-2" data-name="圖層 1"><path class="cls-1" d="M19,28.86c.12.75.25,1.44.33,2.12a6.51,6.51,0,0,1-.25,3.39,3.86,3.86,0,0,1-.42.66c-.19.26-.43.25-.55,0a7.82,7.82,0,0,1-.61-1.65,13,13,0,0,1,0-4.13c0-.41,0-.48-.43-.48-1.4,0-1.08-.08-1,1.17a11.07,11.07,0,0,1-.1,2.7c-.28,1.55-1.34,2.23-3,2.35a19.45,19.45,0,0,1-4-.35c-.61-.09-1.23-.11-1.84-.2-.14,0-.35-.12-.38-.22a12.12,12.12,0,0,0-1.58-3,5.83,5.83,0,0,1-1-2.44A3,3,0,0,1,5.35,26a12.63,12.63,0,0,1,2.86-1.51c.45-.2.88-.42,1.32-.63a.87.87,0,0,0,.59-.84,6.25,6.25,0,0,1,.08-.78l-.43.15a19.41,19.41,0,0,1-3.94,1.51,7.37,7.37,0,0,1-3.37,0,2.74,2.74,0,0,1,1.18-1.35,8.77,8.77,0,0,1,3.6-1.09c1-.13,1.93-.22,2.89-.36a.4.4,0,0,0,.28-.26,5.29,5.29,0,0,0,.19-1c0-.3-.22-.18-.38-.14-1,.25-2.09.52-3.14.75A10.28,10.28,0,0,1,4,20.58a3.46,3.46,0,0,1-3-2.75C.62,16.43.37,15,0,13.59a.66.66,0,0,1,.23-.73c.56-.54,1.06-1.13,1.6-1.68A18.14,18.14,0,0,1,3.65,9.46a3.4,3.4,0,0,1,4.51.06A31.42,31.42,0,0,1,10.5,11.8l1.11,1c.21-.31.42-.61.6-.92,0-.06,0-.23-.11-.31-.64-.65-1.28-1.31-2-1.93A5.22,5.22,0,0,1,8.28,6.23c0-.12,0-.25,0-.49.45.18.86.29,1.22.48a5.23,5.23,0,0,1,2.12,2.27c.45.82.89,1.65,1.31,2.48a.46.46,0,0,0,.7.23c.75-.34.76-.37.32-1.06a12.89,12.89,0,0,1-1.76-3.73,3.31,3.31,0,0,1,1.63-4l4-2.36a.37.37,0,0,1,.31,0,14,14,0,0,0,2.94,1.42,14.73,14.73,0,0,1,2.17,1.19,2.72,2.72,0,0,1,1.1,2.14,6.33,6.33,0,0,1-1.12,3.8c-.4.65-.77,1.32-1.15,2-.15.24-.09.4.18.47l.42.12c.52.17.52.17.78-.34.54-1.08,1-2.19,1.66-3.23a3.47,3.47,0,0,1,2.74-1.71,3.94,3.94,0,0,1-.3,1.75,6.43,6.43,0,0,1-1.72,2.32c-.57.54-1.09,1.14-1.61,1.74a.46.46,0,0,0,0,.44,4.77,4.77,0,0,0,.49.7l.88-.93c.55-.57,1.07-1.17,1.65-1.69a4.44,4.44,0,0,1,5.25-.62,10.56,10.56,0,0,1,1.85,1.64c.66.64,1.28,1.32,1.9,2a.46.46,0,0,1,.15.34c-.14,1.09-.32,2.18-.47,3.27a5.6,5.6,0,0,1-.81,2.65,3.4,3.4,0,0,1-2.72,1.3A16.13,16.13,0,0,1,27.12,20l-.8-.2h-.23c.08.37.13.73.24,1.07,0,.09.2.15.32.18,1.14.21,2.28.4,3.42.62a7.3,7.3,0,0,1,3.08,1.15,2.42,2.42,0,0,1,1,1.17,11.13,11.13,0,0,1-7.36-1.71,1.61,1.61,0,0,0,.78,1.82c.9.39,1.8.75,2.69,1.15a2.91,2.91,0,0,1,1.89,2.64,5,5,0,0,1-.6,2.47c-.49.91-1,1.81-1.49,2.74a5.33,5.33,0,0,0-.36,1c-.06.2-.13.33-.37.31a23.75,23.75,0,0,0-4,.43,6.32,6.32,0,0,1-2,0,2.94,2.94,0,0,1-2.06-2,11.8,11.8,0,0,1-.75-3.26c-.08-.59-.13-.65-.72-.71Zm8.11.56a1.82,1.82,0,0,0,0-.33c-.37-2-.75-3.92-1.12-5.89-.59-3.17-1.19-6.35-1.77-9.53-.05-.3-.15-.34-.42-.21-.67.32-1.35.65-2.05.93a8.19,8.19,0,0,1-4.91.55,14.63,14.63,0,0,1-4.06-1.7,1.49,1.49,0,0,0-.28-.13L9.53,29.45A26,26,0,0,1,27.08,29.42Zm-3.77-17L22,11.61c-.18-.11-.28,0-.43.09a4.8,4.8,0,0,1-1.28.94,6.91,6.91,0,0,1-2.15.43,3.23,3.23,0,0,1-3.15-1.47c0-.06-.18-.13-.21-.11-.47.28-.92.58-1.38.89C15.36,14.73,21.47,14.78,23.31,12.46Zm-6-.2c.09-1.7.17-3.37.25-5,0-.51-.15-.68-.66-.75-.2,0-.29,0-.31.25-.16,1.62-.32,3.25-.47,4.87a.39.39,0,0,0,.12.31A1.27,1.27,0,0,0,17.26,12.26Zm2,.08c.9-.09,1.09-.3,1.08-1.1,0-.23,0-.45,0-.67-.07-.91-.13-1.82-.22-2.72a7.13,7.13,0,0,0-.21-1.12c0-.18-.14-.4-.41-.31s-.52.13-.49.54c.08,1.09.1,2.18.16,3.28C19.13,10.93,19.18,11.62,19.23,12.34Zm-.5.11s0-.06,0-.09c-.05-1.76-.08-3.53-.15-5.29a.62.62,0,0,0-.39-.44c-.27-.07-.35.17-.36.43,0,1.55-.09,3.11-.14,4.66,0,.84,0,.84.82.77Zm1-6.86c-.85-.8-2.77-.7-3.06.16C17.26,6.35,19.35,6.33,19.69,5.59Z"/><path class="cls-1" d="M13.93,22.69V19.92H16.8V17.06h2.76v2.85h2.89v2.76H19.59v2.87H16.82V22.69Z"/><path class="cls-1" d="M67.08,25.78c.8,1.3.91,2,.53,2.32-1,1-2.84,0-3.87-.88a13.41,13.41,0,0,1-2.56-2.93,18.42,18.42,0,0,1-6.82,4.27l-.16-.27a18.15,18.15,0,0,0,6-5.72A26.53,26.53,0,0,1,58,13.23H51.83v3.53h2.59l1.24-1.24,2.22,1.85a1.35,1.35,0,0,1-.86.38c-.13,4.71-.42,6.4-1.39,7.18a3.68,3.68,0,0,1-2.37.7A2.87,2.87,0,0,0,53,24a2.7,2.7,0,0,0-1.37-.7V23c.51,0,1.41.09,1.79.09a.73.73,0,0,0,.59-.18c.4-.35.57-2,.66-5.55H51.83c0,3.53-.31,8.39-4.69,11.5l-.2-.2c2.11-3.35,2.31-7.6,2.31-11.32V11.56l3,1.06H58c-.09-1.48-.14-3-.14-4.52l3.35.33c0,.29-.22.55-.79.64,0,1.19,0,2.38.06,3.55h3.31l.79-1a1.67,1.67,0,0,1-.86-.18,6.41,6.41,0,0,0-2.22-2.62l.15-.18c3.52-.22,4.29,1.44,3.83,2.36.49.37,1.59,1.26,2.31,1.89,0,.22-.28.33-.61.33H60.46a23.79,23.79,0,0,0,1.3,6.63A24.87,24.87,0,0,0,63.43,15l3.43,1.14c-.08.27-.28.44-.88.42a21.48,21.48,0,0,1-3,5.68,9.55,9.55,0,0,0,2.32,2.51c.33.31.48.31.72-.08A24.12,24.12,0,0,0,67.37,22l.22,0Z"/><path class="cls-1" d="M81.62,15.37C82.39,19.44,85,23.49,91.11,26l0,.25a2.75,2.75,0,0,0-2.38,2.55c-5.13-3.13-6.78-8.48-7.37-12.88-.66,5.24-2.87,9.73-10.86,12.88l-.2-.33c6.12-3.7,7.84-8.06,8.33-13.08h-8l-.18-.64h8.17c.15-2.07.13-4.27.13-6.56l3.7.35c-.07.33-.26.55-.79.64,0,1.92-.07,3.79-.22,5.57h5l1.63-2s1.78,1.34,2.89,2.29c-.07.24-.31.35-.64.35Z"/><path class="cls-1" d="M94.31,10h-.68l-.17-.64H101L102.11,8s1.28,1,2,1.67c0,.24-.29.36-.6.36H96.47v6.16c0,.35.11.46.91.46H99.6l1.94,0,.64-.06a4.1,4.1,0,0,0,.66-.14H103l.14,0c.66.2.86.45.86.82,0,.86-.78,1.12-4.65,1.12H97c-2.18,0-2.65-.42-2.65-1.85Zm17.75,7.92s1.19.86,1.94,1.52a.53.53,0,0,1-.57.35h-7.12v1.41h2.62l1.17-1.25,2.47,1.83a1.26,1.26,0,0,1-.77.39V28a4.21,4.21,0,0,1-2.2.66h-.47v-1H98.06v.31c0,.24-1.1.79-2.12.79h-.35V20.15l2.67,1h2.26a12.2,12.2,0,0,0,.07-1.41H94.07l-.17-.63H111ZM97,13a9.11,9.11,0,0,0,.88-3l2.27.61a.76.76,0,0,1-.79.44,1.94,1.94,0,0,1-.29.42h1.76l.84-1s.9.7,1.52,1.27c0,.25-.27.36-.55.36h-1.5v.46a3.39,3.39,0,0,1-.11.9h.31l.79-1s.88.71,1.46,1.24c0,.24-.27.35-.56.35l-2.22,0a.91.91,0,0,1-.11.22c3.33.24,2.33,2.86.86,2.07a4.17,4.17,0,0,0-1.23-1.56,6.48,6.48,0,0,1-3.2,1.67L97,16.16a4.08,4.08,0,0,0,2.09-2.11H96.83l-.18-.62h2.57a5.63,5.63,0,0,0,.07-.9v-.46h-.68a5.66,5.66,0,0,1-1.3,1.08Zm12.13,14V24.24a8.2,8.2,0,0,1-.94.05h-1.83c-2.07,0-2.2-.18-2.2-2.09v-.4h-1.7c-.42,1.45-1.49,2.42-4.4,3.08V27ZM98.06,21.8v2.55a3.52,3.52,0,0,0,2.38-2.55Zm8.19,3.46.77-1s.88.7,1.45,1.23c-.06.24-.26.35-.55.35H99.16L99,25.26Zm-2.09-5.49h-1.43a13.72,13.72,0,0,1-.14,1.41h1.57ZM103.41,13a3,3,0,0,0,1.39-2.84V8.39l2.48.9h1.59l1-1,1.92,1.56a1.2,1.2,0,0,1-.77.31v.7c0,.2,0,.27.26.27h1c.11,0,.31-.05.42-.09h.2l.1,0c.49.22.64.37.64.7,0,.78-.64,1-2.35,1h-.11L112.74,14c-.13.18-.35.24-.85.29a7,7,0,0,1-1.57,1.69c1.92,1.35,1.41,3,0,2.62A11,11,0,0,0,108.6,17,15.55,15.55,0,0,1,104,18.43l-.14-.33a11.32,11.32,0,0,0,3.61-1.81,19.83,19.83,0,0,0-3-1.69l.18-.27a14.74,14.74,0,0,1,4,.82,8.55,8.55,0,0,0,.77-1.12h-5l-.2-.64h5.28l.78-.71c-1.15,0-1.28-.48-1.28-1.52V9.93h-2.14v.22c0,.9-.42,2.4-3.37,3.11Zm2.9,8.81v.42c0,.57,0,.57.42.57h2.12a1.58,1.58,0,0,0,.28,0v-1Z"/><path class="cls-1" d="M125.81,12.27c.68,4-4,2.73-2,.24a2.46,2.46,0,0,0,1.08-1.87c-.18.19-.46.26-1,.26A46.19,46.19,0,0,1,120.9,16,6.77,6.77,0,0,1,124,21.45c0,2.18-.77,3.37-3.13,3.43a5.45,5.45,0,0,0-.24-1.85,1.69,1.69,0,0,0-.91-.5V28a2.22,2.22,0,0,1-1.91.75h-.42V8.68l2.62,1h1.3l1.25-1.21,2.34,2.16,0-.22h.29a10.31,10.31,0,0,1,.44,1.23h4.11a2.2,2.2,0,0,1-.7-.42,5.4,5.4,0,0,0-1-3l.17-.13c4.17.68,3.75,3.15,2.38,3.59h3.59l1.17-1.17,2.09,2a1.25,1.25,0,0,1-.84.22,22.7,22.7,0,0,1-2.42,1.63l1.28,1.15c-.05.24-.29.35-.59.35H125l-.18-.62H132l1.28-1.69.68.55c.16-.49.31-1.21.44-1.78Zm-4.89,10a.73.73,0,0,0,.46-.11c.29-.2.44-.6.44-1.3a8,8,0,0,0-1.45-4.73c.37-1.46.88-4.05,1.15-5.79h-1.77V22.24Zm15.77,3.48a1,1,0,0,1,.7,1.05c0,.95-.79,1.48-3.28,1.48h-1.34c-1.83,0-2.09-.51-2.09-2.09V19.22H129c-.29,3.66-1.21,7.07-7.13,9.38l-.22-.28c4.27-2.76,4.58-5.9,4.66-9.1h-2.18l-.17-.64h9.58l1.29-1.78s1.52,1.21,2.43,2.07c-.07.24-.31.35-.62.35H133.1v6.3c0,.26,0,.35.42.35h1.6a.43.43,0,0,0,.42-.24,18.75,18.75,0,0,0,.84-2.42h.24Z"/><path class="cls-1" d="M139.71,28.49a17.52,17.52,0,0,0,6.91-4.34l3.59,1.52c-.13.27-.48.42-1.25.38a24,24,0,0,1-9.12,2.68Zm5.35-4.16c0,.27-1.12.86-2.22.86h-.38V14.11l.8.31v-6l2.7,1h8l1.17-1.28L157.7,10a1.42,1.42,0,0,1-.9.46v3a4.74,4.74,0,0,1-2.14.57h-.44V13.5h-8.41v.26a3.27,3.27,0,0,1-2.2.75h-.16l1.79.71h9.62l1.23-1.35,2.51,1.94a1.32,1.32,0,0,1-.86.46V24a4.43,4.43,0,0,1-2.22.64h-.44V23.8h-10Zm0-8.48v1.94h10V15.85Zm10,2.56h-10v2h10Zm0,4.75V21.07h-10v2.09Zm-9.27-13.07v2.79h8.41V10.09Zm5.68,14.59c8.81-.41,9.23,4.41,6.5,4.12A29.46,29.46,0,0,0,151.36,25Z"/><path class="cls-1" d="M180.63,24.29s1.78,1.36,2.86,2.31c-.06.24-.28.35-.64.35H163l-.17-.61h8.83V12.2h-7.2l-.18-.64H177.7l1.59-2s1.78,1.37,2.86,2.32c-.07.24-.33.35-.64.35h-7V26.34H179Z"/><path class="cls-1" d="M186.1,13.37c5.94.3,4.22,4.73,1.89,3.32a7.34,7.34,0,0,0-2.07-3.19Zm7.18-2c-.95,2.87-2.56,8.17-2.87,9.43a10.33,10.33,0,0,0-.35,2.16c0,1.21.93,2,.86,3.92a1.77,1.77,0,0,1-1.85,1.87c-.53,0-1-.31-1.21-1.15.42-2.31.31-4.36-.22-4.73a2.25,2.25,0,0,0-1.17-.35v-.42h1c.33,0,.42,0,.66-.46.51-.89.51-.89,4.78-10.38Zm-5.25-3c6.24.55,4.32,5.11,1.94,3.57a9,9,0,0,0-2.11-3.41Zm15.22,5.37,2.49,1.9a1.6,1.6,0,0,1-.9.46v9.62c0,1.68-.36,2.64-3.13,2.91a3.48,3.48,0,0,0-.44-1.76,2.68,2.68,0,0,0-1.72-.84v-.29s1.85.14,2.33.14.44-.16.44-.44V21.6a62.14,62.14,0,0,1-5.57,2.93.88.88,0,0,1-.59.57L195.21,23a8.87,8.87,0,0,1-3.81,5.79l-.22-.2c1.79-2.82,1.9-6.34,1.9-9.45v-5l2.86,1h2v-7l3.22.29c0,.29-.18.48-.73.57v6.12h1.67ZM193.12,9.56c6.28,1.54,4.23,6.12,1.94,4.42a9.94,9.94,0,0,0-2.14-4.29Zm2.44,9.55a20.41,20.41,0,0,1-.19,3.13,70.67,70.67,0,0,0,6.95-1.41V15.72h-6.76v2.14c7.45-1.37,7.16,3.1,4.81,2.73a15.77,15.77,0,0,0-4.81-2.05Zm10.79-8.17c-.11.22-.33.33-.85.27a45.34,45.34,0,0,1-4.32,3.23l-.24-.21a41.92,41.92,0,0,0,2.49-5.16Z"/><path class="cls-1" d="M229.72,14.8a1.23,1.23,0,0,1-.77.31c-.11,1.05-.31,1.6-1,1.95a3.44,3.44,0,0,1-1.65.34l.8.59a1.65,1.65,0,0,1-.8.42v6.21a4.32,4.32,0,0,1-2.18.64h-.42v-.71h-8.47v.33c0,.24-1.13.82-2.2.82h-.36v-8a25.32,25.32,0,0,1-3.48.93l-.13-.27c3-.94,4.65-2.16,5.57-3.52h-1.85l-.81,1-2.11-1.32a3,3,0,0,1,.79-.49c.13-.79.28-1.91.33-2.57l2.57.61h2.12c0-.42.06-.81.06-1.23v-.26h-5.24l-.19-.62h5.43V8.08l3.15.29c0,.28-.22.5-.72.57v1h2.26V8.08l3.26.31c0,.29-.22.51-.81.59v.93h2.29l1.1-1.17,2.31,1.72a1.44,1.44,0,0,1-.79.42v1.87a3.41,3.41,0,0,1-2,.64h-.42v-.73H222.9V14.2h3.74l1.08-1ZM209.56,28.52a20.81,20.81,0,0,0,7.3-3.88l2.82,1.85c-.2.24-.61.33-1.27.18a25,25,0,0,1-8.77,2.15Zm5.5-14.32a5.92,5.92,0,0,0,.55-1.54h-2.55c-.09.49-.18,1.06-.29,1.54Zm9.38,1.26c.46,0,1.28.09,1.61.09a.81.81,0,0,0,.48-.11c.11-.07.18-.31.24-.62H222.9v1.5c0,.2-1.06.59-2,.59h-.42V14.82H217A7.18,7.18,0,0,1,214.31,17l1.1.44h8.13l1.14-1.28,1.23.9a1.14,1.14,0,0,0-.28-.77,2.32,2.32,0,0,0-1.19-.52Zm-.71,4.12V18.06h-8.47v1.52Zm-8.47,2.15h8.47V20.19h-8.47Zm8.47,2.18V22.35h-8.47v1.56Zm-3.28-11.25H218a6.07,6.07,0,0,1-.6,1.54h3.08Zm-2.26-1.83c0,.4-.05.8-.11,1.19h2.37V10.53h-2.26Zm2.13,14.54c12.42.17,8,4.73,5.68,3a15.66,15.66,0,0,0-5.74-2.77Zm2.58-14.84V12h2.51V10.53Z"/><path class="cls-1" d="M244.73,9c-.09.29-.38.42-1.08.49,2,2.7,5.92,4.27,9.31,5.19l0,.36a3.07,3.07,0,0,0-2,2.37,14.93,14.93,0,0,1-7.61-7.66c-2.1,3.35-6.61,6.83-11,8.52l-.13-.26c3.79-2.31,7.8-6.81,8.72-10Zm2.88,10.11,2.64,2a1.61,1.61,0,0,1-.92.49V27.9a4.76,4.76,0,0,1-2.29.62h-.46V26.91h-8v1c0,.24-1.19.83-2.31.83h-.4v-9.4l2.89,1.15h7.62Zm-2.44-4.36s1.63,1.28,2.62,2.18c-.07.24-.29.35-.62.35h-9.6l-.18-.64h6.32Zm1.41,11.56V21.12h-8v5.15Z"/><path class="cls-1" d="M261.45,15c-.07.19-.27.35-.69.44V28a3.11,3.11,0,0,1-2.11.75h-.48V17.24a18,18,0,0,1-2.84,2.64l-.27-.19a37.27,37.27,0,0,0,5.11-11.63l3.5,1.17a.81.81,0,0,1-.88.44,32.15,32.15,0,0,1-2.56,4.89Zm8.25-1.59v4.07h1.76l1.35-1.76s1.52,1.21,2.46,2c-.06.24-.3.35-.61.35h-5v4.16h1.9l1.47-1.91s1.63,1.3,2.64,2.18c-.06.24-.3.35-.63.35H269.7v5.15c0,.16-.81.68-2.18.68H267V13.41h-.53a19.72,19.72,0,0,1-4.93,5.24l-.24-.18a35.48,35.48,0,0,0,4.53-10.39l3.55,1.26c-.11.28-.4.46-.91.42a29.47,29.47,0,0,1-1.62,3.06h5.17l1.45-1.9s1.63,1.28,2.62,2.14c-.06.24-.31.35-.61.35Z"/><path class="cls-1" d="M284.13,17.9c5.68,1.28,3.72,5.37,1.59,3.79a8.85,8.85,0,0,0-1.59-3.19v9.4a2.47,2.47,0,0,1-2,.77h-.44V20.24a20.41,20.41,0,0,1-3.29,2.31l-.19-.2a24.58,24.58,0,0,0,5.9-8.87h-5.29l-.19-.64H284l1.41-1.35,2.29,2.25a1.61,1.61,0,0,1-1,.29,21.26,21.26,0,0,1-2.56,3.76Zm-3.3-9.82c5.9,1.15,3.46,5.35,1.26,3.57a8.63,8.63,0,0,0-1.46-3.46Zm15.9,16.82s1.61,1.37,2.53,2.27c-.07.24-.29.35-.62.35H285.7l-.18-.63H291V16.58h-4l-.18-.62H291V8.26l3.5.33c-.06.33-.22.55-.81.64V16h1.41l1.34-1.85s1.5,1.26,2.38,2.12c-.07.24-.29.35-.62.35h-4.51V26.89h1.65Z"/></g></g></svg>