<svg xmlns="http://www.w3.org/2000/svg" xmlns:xlink="http://www.w3.org/1999/xlink" viewBox="0 0 644.63 121.78"><defs><style>.cls-1{fill:#004994;}.cls-2{fill:#6fba2e;}.cls-3{fill:url(#linear-gradient);}.cls-4{fill:url(#linear-gradient-2);}.cls-5{fill:url(#linear-gradient-3);}.cls-6{fill:url(#linear-gradient-4);}.cls-7{fill:#138b3b;}</style><linearGradient id="linear-gradient" x1="119.49" y1="190.06" x2="164.42" y2="74.95" gradientUnits="userSpaceOnUse"><stop offset="0" stop-color="#4ab464"/><stop offset="0.25" stop-color="#4eb55e"/><stop offset="0.58" stop-color="#5ab74d"/><stop offset="0.95" stop-color="#6cba32"/><stop offset="1" stop-color="#6fba2e"/></linearGradient><linearGradient id="linear-gradient-2" x1="108.15" y1="-19.92" x2="66.04" y2="122.34" xlink:href="#linear-gradient"/><linearGradient id="linear-gradient-3" x1="6171.22" y1="138.42" x2="6171.22" y2="-17.42" gradientTransform="matrix(-1, 0, 0, 1, 6205.81, 0)" gradientUnits="userSpaceOnUse"><stop offset="0" stop-color="#4ec1e7"/><stop offset="0.28" stop-color="#3e9ecd"/><stop offset="0.89" stop-color="#16468b"/><stop offset="1" stop-color="#0e357f"/></linearGradient><linearGradient id="linear-gradient-4" x1="6088.29" y1="138.42" x2="6088.29" y2="-17.42" xlink:href="#linear-gradient-3"/></defs><g id="圖層_2" data-name="圖層 2"><g id="logo"><path class="cls-1" d="M548.36,117.36l1.63-.14a3.65,3.65,0,0,0,.54,1.61,2.93,2.93,0,0,0,1.31,1,5.34,5.34,0,0,0,3.74.1,2.47,2.47,0,0,0,1.13-.81,1.9,1.9,0,0,0,.37-1.12,1.71,1.71,0,0,0-.36-1.07,2.74,2.74,0,0,0-1.17-.77,22.94,22.94,0,0,0-2.32-.63,11.63,11.63,0,0,1-2.52-.82,3.47,3.47,0,0,1-1.39-1.21,2.92,2.92,0,0,1-.46-1.62,3.35,3.35,0,0,1,.56-1.85,3.42,3.42,0,0,1,1.64-1.3,6.1,6.1,0,0,1,2.39-.45,6.57,6.57,0,0,1,2.56.47,3.75,3.75,0,0,1,1.7,1.37,3.94,3.94,0,0,1,.64,2.06l-1.65.12a2.64,2.64,0,0,0-.91-1.86,3.45,3.45,0,0,0-2.27-.64,3.67,3.67,0,0,0-2.28.58,1.71,1.71,0,0,0-.72,1.38,1.5,1.5,0,0,0,.51,1.16,7,7,0,0,0,2.6.93,16.4,16.4,0,0,1,2.89.83A3.91,3.91,0,0,1,558.2,116a3.22,3.22,0,0,1,.54,1.85,3.57,3.57,0,0,1-.59,2,3.9,3.9,0,0,1-1.72,1.44,6,6,0,0,1-2.51.51,7.42,7.42,0,0,1-3-.52,4.13,4.13,0,0,1-1.87-1.55A4.49,4.49,0,0,1,548.36,117.36Z"/><path class="cls-1" d="M560.9,110.36v-1.85h1.6v1.85Zm0,11.19v-9.44h1.6v9.44Z"/><path class="cls-1" d="M564.94,121.55v-9.44h1.44v1.34a3.39,3.39,0,0,1,3-1.55,4,4,0,0,1,1.57.3A2.51,2.51,0,0,1,572,113a3.08,3.08,0,0,1,.5,1.18,9.15,9.15,0,0,1,.09,1.56v5.8H571v-5.74a4.39,4.39,0,0,0-.19-1.46,1.61,1.61,0,0,0-.66-.78,2.15,2.15,0,0,0-1.12-.29,2.63,2.63,0,0,0-1.77.65,3.24,3.24,0,0,0-.74,2.47v5.15Z"/><path class="cls-1" d="M581.24,118.1l1.57.2a4.07,4.07,0,0,1-1.32,2.55,3.87,3.87,0,0,1-2.61.92,4.06,4.06,0,0,1-3.12-1.27,5.15,5.15,0,0,1-1.18-3.63,6.57,6.57,0,0,1,.51-2.68,3.55,3.55,0,0,1,1.54-1.72,4.6,4.6,0,0,1,2.26-.57,4,4,0,0,1,2.51.77,3.58,3.58,0,0,1,1.26,2.21l-1.56.24a2.59,2.59,0,0,0-.79-1.43,2,2,0,0,0-1.36-.48,2.49,2.49,0,0,0-2,.87,4.13,4.13,0,0,0-.75,2.74,4.25,4.25,0,0,0,.73,2.77,2.38,2.38,0,0,0,1.9.86,2.19,2.19,0,0,0,1.57-.58A2.85,2.85,0,0,0,581.24,118.1Z"/><path class="cls-1" d="M590.65,118.51l1.65.21a4.05,4.05,0,0,1-1.45,2.25,4.91,4.91,0,0,1-6-.48,5,5,0,0,1-1.21-3.58,5.26,5.26,0,0,1,1.22-3.7,4.15,4.15,0,0,1,3.19-1.31,4,4,0,0,1,3.09,1.29,5.1,5.1,0,0,1,1.2,3.62v.43H585.3a3.6,3.6,0,0,0,.88,2.38,2.6,2.6,0,0,0,2,.83,2.46,2.46,0,0,0,1.51-.46A3.16,3.16,0,0,0,590.65,118.51Zm-5.26-2.59h5.27a3.17,3.17,0,0,0-.6-1.78,2.45,2.45,0,0,0-2-.93,2.56,2.56,0,0,0-1.86.74A2.9,2.9,0,0,0,585.39,115.92Z"/><path class="cls-1" d="M605,121.55h-1.6v-10.2a8.32,8.32,0,0,1-1.52,1.11,11.55,11.55,0,0,1-1.68.82v-1.55a9.37,9.37,0,0,0,2.34-1.53,5.87,5.87,0,0,0,1.43-1.74h1Z"/><path class="cls-1" d="M609.3,118.54l1.54-.14a2.69,2.69,0,0,0,.74,1.57,2,2,0,0,0,1.42.49,2.39,2.39,0,0,0,1.29-.34,2.61,2.61,0,0,0,.91-.9,5.3,5.3,0,0,0,.6-1.53,8,8,0,0,0,.24-2c0-.07,0-.18,0-.32a3.72,3.72,0,0,1-1.31,1.24,3.53,3.53,0,0,1-1.8.47,3.65,3.65,0,0,1-2.74-1.17,4.28,4.28,0,0,1-1.12-3.1,4.4,4.4,0,0,1,1.17-3.19,3.92,3.92,0,0,1,2.93-1.21,4.13,4.13,0,0,1,2.32.69,4.22,4.22,0,0,1,1.61,1.95,9.72,9.72,0,0,1,.54,3.67,11.92,11.92,0,0,1-.54,4,4.62,4.62,0,0,1-1.61,2.25,4.19,4.19,0,0,1-2.52.78,3.44,3.44,0,0,1-3.66-3.24Zm6.55-5.76a3.12,3.12,0,0,0-.73-2.18,2.31,2.31,0,0,0-1.77-.81,2.45,2.45,0,0,0-1.86.87,3.26,3.26,0,0,0-.79,2.26,2.75,2.75,0,0,0,.76,2,2.47,2.47,0,0,0,1.85.78,2.38,2.38,0,0,0,1.83-.78A3.11,3.11,0,0,0,615.85,112.78Z"/><path class="cls-1" d="M619.43,118.54l1.54-.14a2.64,2.64,0,0,0,.75,1.57,2,2,0,0,0,1.41.49,2.39,2.39,0,0,0,1.29-.34,2.73,2.73,0,0,0,.92-.9,5.62,5.62,0,0,0,.59-1.53,8,8,0,0,0,.24-2c0-.07,0-.18,0-.32a3.64,3.64,0,0,1-1.31,1.24,3.51,3.51,0,0,1-1.8.47,3.65,3.65,0,0,1-2.74-1.17,4.28,4.28,0,0,1-1.12-3.1,4.4,4.4,0,0,1,1.17-3.19,3.94,3.94,0,0,1,2.93-1.21,4.18,4.18,0,0,1,2.33.69,4.26,4.26,0,0,1,1.6,1.95,9.72,9.72,0,0,1,.54,3.67,11.92,11.92,0,0,1-.54,4,4.62,4.62,0,0,1-1.61,2.25,4.16,4.16,0,0,1-2.51.78,3.44,3.44,0,0,1-3.67-3.24Zm6.56-5.76a3.13,3.13,0,0,0-.74-2.18,2.3,2.3,0,0,0-1.76-.81,2.42,2.42,0,0,0-1.86.87,3.22,3.22,0,0,0-.8,2.26,2.79,2.79,0,0,0,.76,2,2.47,2.47,0,0,0,1.85.78,2.38,2.38,0,0,0,1.83-.78A3.06,3.06,0,0,0,626,112.78Z"/><path class="cls-1" d="M637.73,120v1.53h-8.61a2.81,2.81,0,0,1,.18-1.11,5.86,5.86,0,0,1,1.06-1.73,16.55,16.55,0,0,1,2.09-2,17.12,17.12,0,0,0,2.87-2.76,3.3,3.3,0,0,0,.75-1.92,2.16,2.16,0,0,0-.68-1.61,2.46,2.46,0,0,0-1.77-.65,2.51,2.51,0,0,0-1.85.69,2.61,2.61,0,0,0-.71,1.92l-1.64-.17a4,4,0,0,1,1.27-2.8,4.29,4.29,0,0,1,3-1,4.15,4.15,0,0,1,3,1,3.44,3.44,0,0,1,1.1,2.58,4,4,0,0,1-.32,1.54,6,6,0,0,1-1.07,1.59,25.52,25.52,0,0,1-2.46,2.3c-1,.8-1.58,1.35-1.86,1.64a5.2,5.2,0,0,0-.67.87Z"/><path class="cls-2" d="M465.53,89.61a11.54,11.54,0,0,1-23.07,0,11.27,11.27,0,0,1,.5-3.35,11.44,11.44,0,0,1,1-2.35h0L454.1,60.66,463.43,83A11.56,11.56,0,0,1,465.53,89.61Z"/><path class="cls-1" d="M268,8.13a179.28,179.28,0,0,1-10.07,22.44v70.34H246.17V49.07c-2,2.59-3.95,5-5.92,7.17a84.58,84.58,0,0,0-6.66-13c9-9.35,17.77-24,22.86-38.76Zm63.38,17.56v9.25H262.17V25.69h17.56c.51-2,1-4.05,1.56-6.24H268.71v-9h14.65c.52-2.28.94-4.57,1.35-6.65L296.56,5l-1.14,5.4h26.07V25.69ZM306.12,81.48h24.93v9.35H306.12V101H294.17V90.83H266.32c1.46-4.46,3.12-10.49,4.47-16H265V66.11h29.2V61.74H268.5V38.57h55.8V61.74H306.12v4.37h23.27v8.72H306.12Zm-26.6-28.26h33.25V47.09H279.52Zm14.65,28.26V74.83H282.32c-.52,2.18-1,4.47-1.55,6.65Zm-.73-62c-.52,2.19-1,4.26-1.56,6.24h17.77V19.45Z"/><path class="cls-1" d="M384.15,89.69c0,5.09-.93,7.69-4.36,9.35s-8,1.77-14.34,1.77a34.4,34.4,0,0,0-3.74-9.66c3.74.2,7.79.2,9,.2s1.76-.41,1.76-1.76V79c-5.19,3.74-10.39,7.27-15.06,10.29L354.85,82c-1.14,7.07-3.43,14.13-7.37,19.53a50.67,50.67,0,0,0-8.63-8.31c5.51-8.1,5.92-19.53,5.92-28.57V41.27h39.38Zm-5.82-77.92c4.37,7.48,9.87,17.66,12.37,23.89L379.89,40c-.62-1.87-1.56-4.05-2.6-6.55C351,36.08,346.75,36.71,343.73,38c-.62-2.39-2.6-8-3.84-11.12,1.87-.41,3.63-1.87,5.71-4.15a88.13,88.13,0,0,0,12.27-18.5l12.46,3.53A115.27,115.27,0,0,1,357.55,25l15.17-1.14c-1.56-3-3-5.92-4.37-8.42Zm-22.13,53a123.1,123.1,0,0,1-.73,13.29c4.68-2.07,10.81-5.19,17-8.52V66.11l-5,4.88A150.74,150.74,0,0,0,356.2,61Zm0-13.1V59l5.19-4.47c3.54,2.49,8,6.14,11.12,8.83V51.66Zm51.33-1.76c-12.47,0-15.8-4.57-15.8-16.11V4.29H404V16.54h25.57V27.15H404V34c0,3.85.63,5.3,3.95,5.3h15.17a53.61,53.61,0,0,0,9.56-.83c.21,3.22.72,7.69,1.14,10.49-2.18.73-6.54.94-10.49.94Zm13.09,39.69c3.53,0,4.26-1.77,4.77-11.33,2.5,1.87,7.49,3.74,10.71,4.47-1.25,13.61-4.47,17.66-14.34,17.66H407c-12.26,0-15.28-3.63-15.28-15V52.81H404V63.2h26.29V74.1H404V85.43c0,3.64.73,4.16,4.78,4.16Z"/><path class="cls-1" d="M458.13,54.16c-3.74-3.64-11.53-8.42-17.76-11.22l5.81-9.36c6,2.5,14,6.87,18.08,10.29Zm5.09-28.06C459.79,22.36,452,17.27,446,14.36l6-9c6,2.5,13.92,7,17.87,10.81Zm75.43,35.95h-7.17V77.74h-24.1v10.5c0,6-1.14,8.93-5.1,10.7s-9.45,1.87-17.24,1.87a39.41,39.41,0,0,0-3.43-11c5,.2,10.5.2,12.16.1s2.08-.42,2.08-1.87V77.74H473.71V68h22.14V62.05H468.52V51.56h27.33V46.05h-21.2V36.29h4.57A51.2,51.2,0,0,0,473.4,25l8.52-3.74a45.14,45.14,0,0,1,6.76,12.26l-5.92,2.81h48.72V51.56h7.17ZM532,13c-16.1,4.47-38.65,7.07-58,8.21a38.25,38.25,0,0,0-2.9-9.45c18.8-1.25,40.1-3.95,52.67-7.59ZM499.37,36.08a53,53,0,0,0-5.5-14.23l9-2.91a63.19,63.19,0,0,1,5.92,13.71Zm8,15.48h13.5V46.05h-13.5Zm13.5,10.49h-13.5V68h13.5ZM513.2,32.76a92.8,92.8,0,0,0,8.1-15.59l11.43,3c-3.32,5.92-6.65,11.54-9.46,15.48Z"/><path class="cls-1" d="M585.51,32c-4.57,28.05-15.79,49-30.34,59.94-2.07-2.9-6.95-7.79-10-9.55,11.95-8.11,20.89-22.34,25.46-40.52H548.94V29.43h26.18l2.29-.42Zm51.64-1.77c-7.69,7.69-16.73,16.31-24.1,22.24,7.89,12,18.49,21.71,31.58,27.42a56,56,0,0,0-9.24,11.54c-14.66-7.8-25.67-20.47-33.77-35.95V85.33c0,7.17-1.35,10.8-5.51,13.09s-10.29,2.8-18.7,2.8a53.76,53.76,0,0,0-4.57-13.82c5.71.21,11.22.21,13.19.21,1.77,0,2.39-.62,2.39-2.39V4.08h13.2V29.43a117.23,117.23,0,0,0,5.71,13.4,165.68,165.68,0,0,0,18.4-20.57Z"/><path class="cls-3" d="M130.6,102.21l27.65-55.6a3.49,3.49,0,0,1,1.27-1.52,5.3,5.3,0,0,1,2.64-.68h13.42a4.94,4.94,0,0,1,2,.39c1.12.93.22,2.64.22,2.64l-5.58,11-1.42,2.78H189a5.43,5.43,0,0,1,2.47.58,1.86,1.86,0,0,1,.37,2.2L176.36,93.76s-3.54,8.46-11.84,8.47C155.32,102.25,130.6,102.21,130.6,102.21Z"/><path class="cls-4" d="M82.89.69,53.25,102.18H82.71s7.85.43,11.35-10,21.42-74.7,21.42-74.7Z"/><path class="cls-5" d="M29.49,3.47C40.41,8.15,45.21,20.06,45.21,20.06l24,82.12H39.72s-7.86.43-11.35-10S0,.48,0,.48,17.27-1.76,29.49,3.47Z"/><path class="cls-6" d="M112.43,3.47c10.91,4.68,15.71,16.59,15.71,16.59l24,82.12H122.65s-7.86.43-11.35-10S82.93.48,82.93.48,100.2-1.76,112.43,3.47Z"/><path class="cls-2" d="M199.75,42.7A4.84,4.84,0,0,1,195.88,45h-14a1.44,1.44,0,0,1-1.38-2.31L186,32.42a4.84,4.84,0,0,1,3.87-2.31h14a1.44,1.44,0,0,1,1.38,2.31Z"/><path class="cls-2" d="M185.36,28.45a4.44,4.44,0,0,1-3.55,2.12H169a1.32,1.32,0,0,1-1.27-2.12L172.77,19a4.44,4.44,0,0,1,3.55-2.12h12.85A1.32,1.32,0,0,1,190.44,19Z"/><path class="cls-2" d="M209.73,14a3.77,3.77,0,0,1-3,1.8h-10.9a1.12,1.12,0,0,1-1.07-1.8l4.3-8a3.79,3.79,0,0,1,3-1.8H213A1.12,1.12,0,0,1,214,6Z"/><polygon class="cls-7" points="152.1 102.18 144.16 74.95 130.61 102.18 152.1 102.18"/></g></g></svg>